<mxfile host="app.diagrams.net" agent="Mozilla/5.0 (Windows NT 10.0; Win64; x64) AppleWebKit/537.36 (KHTML, like Gecko) Chrome/130.0.0.0 Safari/537.36" version="24.8.3">
  <diagram id="prtHgNgQTEPvFCAcTncT" name="Page-1">
    <mxGraphModel dx="1383" dy="732" grid="1" gridSize="10" guides="1" tooltips="1" connect="1" arrows="1" fold="1" page="1" pageScale="1" pageWidth="827" pageHeight="1169" math="0" shadow="0">
      <root>
        <mxCell id="0" />
        <mxCell id="1" parent="0" />
        <mxCell id="dNxyNK7c78bLwvsdeMH5-19" value="Pool" style="swimlane;html=1;childLayout=stackLayout;resizeParent=1;resizeParentMax=0;horizontal=0;startSize=20;horizontalStack=0;" parent="1" vertex="1">
          <mxGeometry x="120" y="120" width="2590" height="600" as="geometry" />
        </mxCell>
        <mxCell id="dNxyNK7c78bLwvsdeMH5-20" value="Front: Individual (Default mode)&lt;div&gt;(Single Select)&lt;/div&gt;" style="swimlane;html=1;startSize=20;horizontal=0;fontSize=6;" parent="dNxyNK7c78bLwvsdeMH5-19" vertex="1">
          <mxGeometry x="20" width="2570" height="120" as="geometry" />
        </mxCell>
        <mxCell id="dNxyNK7c78bLwvsdeMH5-25" value="" style="edgeStyle=orthogonalEdgeStyle;rounded=0;orthogonalLoop=1;jettySize=auto;html=1;" parent="dNxyNK7c78bLwvsdeMH5-20" source="dNxyNK7c78bLwvsdeMH5-23" edge="1">
          <mxGeometry relative="1" as="geometry">
            <mxPoint x="120" y="60" as="targetPoint" />
          </mxGeometry>
        </mxCell>
        <mxCell id="dNxyNK7c78bLwvsdeMH5-23" value="Start" style="ellipse;whiteSpace=wrap;html=1;" parent="dNxyNK7c78bLwvsdeMH5-20" vertex="1">
          <mxGeometry x="40" y="40" width="40" height="40" as="geometry" />
        </mxCell>
        <mxCell id="AuZTPGffEV9Px7jYYl5v-34" value="Got to ACRA Portal in Browser" style="rounded=0;whiteSpace=wrap;html=1;" vertex="1" parent="dNxyNK7c78bLwvsdeMH5-20">
          <mxGeometry x="120" y="30" width="120" height="60" as="geometry" />
        </mxCell>
        <mxCell id="AuZTPGffEV9Px7jYYl5v-40" value="" style="edgeStyle=orthogonalEdgeStyle;rounded=0;orthogonalLoop=1;jettySize=auto;html=1;" edge="1" parent="dNxyNK7c78bLwvsdeMH5-20" source="AuZTPGffEV9Px7jYYl5v-36" target="AuZTPGffEV9Px7jYYl5v-38">
          <mxGeometry relative="1" as="geometry" />
        </mxCell>
        <mxCell id="AuZTPGffEV9Px7jYYl5v-36" value="Choose&amp;nbsp;&lt;div&gt;list to start&lt;/div&gt;" style="rhombus;whiteSpace=wrap;html=1;" vertex="1" parent="dNxyNK7c78bLwvsdeMH5-20">
          <mxGeometry x="274" y="20" width="80" height="80" as="geometry" />
        </mxCell>
        <mxCell id="AuZTPGffEV9Px7jYYl5v-44" style="edgeStyle=orthogonalEdgeStyle;rounded=0;orthogonalLoop=1;jettySize=auto;html=1;entryX=0;entryY=0.5;entryDx=0;entryDy=0;" edge="1" parent="dNxyNK7c78bLwvsdeMH5-20" source="AuZTPGffEV9Px7jYYl5v-38" target="AuZTPGffEV9Px7jYYl5v-43">
          <mxGeometry relative="1" as="geometry" />
        </mxCell>
        <mxCell id="AuZTPGffEV9Px7jYYl5v-38" value="Choose from List" style="rounded=0;whiteSpace=wrap;html=1;" vertex="1" parent="dNxyNK7c78bLwvsdeMH5-20">
          <mxGeometry x="420" y="30" width="120" height="60" as="geometry" />
        </mxCell>
        <mxCell id="AuZTPGffEV9Px7jYYl5v-43" value="Click on name" style="rounded=0;whiteSpace=wrap;html=1;" vertex="1" parent="dNxyNK7c78bLwvsdeMH5-20">
          <mxGeometry x="567" y="30" width="120" height="60" as="geometry" />
        </mxCell>
        <mxCell id="AuZTPGffEV9Px7jYYl5v-45" value="Click on name" style="rounded=0;whiteSpace=wrap;html=1;" vertex="1" parent="dNxyNK7c78bLwvsdeMH5-20">
          <mxGeometry x="720" y="30" width="120" height="60" as="geometry" />
        </mxCell>
        <mxCell id="dNxyNK7c78bLwvsdeMH5-21" value="Front: Bulk Mode&lt;div&gt;&lt;span style=&quot;background-color: initial;&quot;&gt;(Multi-select)&lt;/span&gt;&lt;/div&gt;" style="swimlane;html=1;startSize=20;horizontal=0;fontSize=6;" parent="dNxyNK7c78bLwvsdeMH5-19" vertex="1">
          <mxGeometry x="20" y="120" width="2570" height="120" as="geometry" />
        </mxCell>
        <mxCell id="AuZTPGffEV9Px7jYYl5v-22" value="Front: Group Mode&lt;div&gt;&amp;nbsp;(Select All)&lt;/div&gt;" style="swimlane;html=1;startSize=20;horizontal=0;fontSize=6;" vertex="1" parent="dNxyNK7c78bLwvsdeMH5-19">
          <mxGeometry x="20" y="240" width="2570" height="120" as="geometry" />
        </mxCell>
        <mxCell id="AuZTPGffEV9Px7jYYl5v-23" value="" style="edgeStyle=orthogonalEdgeStyle;rounded=0;orthogonalLoop=1;jettySize=auto;html=1;endArrow=classic;endFill=1;" edge="1" parent="AuZTPGffEV9Px7jYYl5v-22" target="AuZTPGffEV9Px7jYYl5v-25">
          <mxGeometry relative="1" as="geometry">
            <mxPoint x="200" y="60" as="sourcePoint" />
          </mxGeometry>
        </mxCell>
        <mxCell id="AuZTPGffEV9Px7jYYl5v-26" value="Front: Approver" style="swimlane;html=1;startSize=20;horizontal=0;fontSize=6;" vertex="1" parent="dNxyNK7c78bLwvsdeMH5-19">
          <mxGeometry x="20" y="360" width="2570" height="120" as="geometry" />
        </mxCell>
        <mxCell id="AuZTPGffEV9Px7jYYl5v-27" value="" style="edgeStyle=orthogonalEdgeStyle;rounded=0;orthogonalLoop=1;jettySize=auto;html=1;endArrow=classic;endFill=1;" edge="1" parent="AuZTPGffEV9Px7jYYl5v-26" target="AuZTPGffEV9Px7jYYl5v-29">
          <mxGeometry relative="1" as="geometry">
            <mxPoint x="200" y="60" as="sourcePoint" />
          </mxGeometry>
        </mxCell>
        <mxCell id="AuZTPGffEV9Px7jYYl5v-30" value="Backend" style="swimlane;html=1;startSize=20;horizontal=0;fontSize=6;" vertex="1" parent="dNxyNK7c78bLwvsdeMH5-19">
          <mxGeometry x="20" y="480" width="2570" height="120" as="geometry" />
        </mxCell>
        <mxCell id="AuZTPGffEV9Px7jYYl5v-31" value="" style="edgeStyle=orthogonalEdgeStyle;rounded=0;orthogonalLoop=1;jettySize=auto;html=1;endArrow=classic;endFill=1;" edge="1" parent="AuZTPGffEV9Px7jYYl5v-30" target="AuZTPGffEV9Px7jYYl5v-33">
          <mxGeometry relative="1" as="geometry">
            <mxPoint x="200" y="60" as="sourcePoint" />
          </mxGeometry>
        </mxCell>
        <mxCell id="AuZTPGffEV9Px7jYYl5v-39" value="Search" style="rounded=0;whiteSpace=wrap;html=1;" vertex="1" parent="AuZTPGffEV9Px7jYYl5v-30">
          <mxGeometry x="254" y="30" width="120" height="60" as="geometry" />
        </mxCell>
        <mxCell id="AuZTPGffEV9Px7jYYl5v-41" value="Enter name to search" style="edgeStyle=orthogonalEdgeStyle;rounded=0;orthogonalLoop=1;jettySize=auto;html=1;" edge="1" parent="dNxyNK7c78bLwvsdeMH5-19" source="AuZTPGffEV9Px7jYYl5v-36" target="AuZTPGffEV9Px7jYYl5v-39">
          <mxGeometry relative="1" as="geometry" />
        </mxCell>
        <mxCell id="AuZTPGffEV9Px7jYYl5v-42" value="Search results" style="edgeStyle=orthogonalEdgeStyle;rounded=0;orthogonalLoop=1;jettySize=auto;html=1;entryX=0.5;entryY=1;entryDx=0;entryDy=0;" edge="1" parent="dNxyNK7c78bLwvsdeMH5-19" source="AuZTPGffEV9Px7jYYl5v-39" target="AuZTPGffEV9Px7jYYl5v-38">
          <mxGeometry relative="1" as="geometry" />
        </mxCell>
        <mxCell id="dNxyNK7c78bLwvsdeMH5-30" value="" style="rounded=0;whiteSpace=wrap;html=1;fontFamily=Helvetica;fontSize=12;fontColor=#000000;align=center;" parent="1" vertex="1">
          <mxGeometry x="2480" y="150" width="80" height="60" as="geometry" />
        </mxCell>
        <mxCell id="dNxyNK7c78bLwvsdeMH5-32" value="End" style="ellipse;whiteSpace=wrap;html=1;" parent="1" vertex="1">
          <mxGeometry x="2600" y="160" width="40" height="40" as="geometry" />
        </mxCell>
        <mxCell id="dNxyNK7c78bLwvsdeMH5-33" value="" style="edgeStyle=orthogonalEdgeStyle;rounded=0;orthogonalLoop=1;jettySize=auto;html=1;endArrow=classic;endFill=1;" parent="1" source="dNxyNK7c78bLwvsdeMH5-30" target="dNxyNK7c78bLwvsdeMH5-32" edge="1">
          <mxGeometry relative="1" as="geometry" />
        </mxCell>
      </root>
    </mxGraphModel>
  </diagram>
</mxfile>
